<svg width="16" height="17" viewBox="0 0 16 17" fill="none" xmlns="http://www.w3.org/2000/svg">
    <path fill-rule="evenodd" clip-rule="evenodd"
          d="M5.79098 3.54381L3.31598 6.01881C3.12851 6.20633 3.02319 6.46064 3.02319 6.72581C3.02319 6.99097 3.12851 7.24528 3.31598 7.4328L5.79098 9.9078C5.88385 10.0008 5.99414 10.0745 6.11554 10.1249C6.23694 10.1752 6.36706 10.2011 6.49848 10.2011C6.6299 10.2011 6.76002 10.1752 6.88142 10.1249C7.00282 10.0745 7.11311 10.0008 7.20598 9.9078L9.67998 7.4328C9.86745 7.24528 9.97277 6.99097 9.97277 6.72581C9.97277 6.46064 9.86745 6.20633 9.67998 6.01881L7.20598 3.54381C7.11311 3.45083 7.00282 3.37707 6.88142 3.32675C6.76002 3.27642 6.6299 3.25052 6.49848 3.25052C6.36706 3.25052 6.23694 3.27642 6.11554 3.32675C5.99414 3.37707 5.88385 3.45083 5.79098 3.54381ZM6.49798 8.4938L4.73098 6.72581L6.49798 4.95781L8.26598 6.72581L6.49798 8.4938Z"
          fill="black"/>
    <path fill-rule="evenodd" clip-rule="evenodd"
          d="M-6.01064e-05 6.72569C-0.000846066 5.2549 0.49721 3.82731 1.41273 2.6762C2.32825 1.52508 3.6071 0.718493 5.04034 0.388219C6.47357 0.057946 7.97645 0.223516 9.30341 0.857876C10.6304 1.49224 11.703 2.55788 12.3459 3.88069C13.2767 4.33443 14.0856 5.00396 14.7052 5.83354C15.3249 6.66312 15.7374 7.62873 15.9084 8.64998C16.0794 9.67122 16.0039 10.7185 15.6883 11.7047C15.3727 12.6909 14.826 13.5874 14.0938 14.3196C13.3617 15.0518 12.4652 15.5984 11.479 15.9141C10.4928 16.2297 9.44547 16.3052 8.42422 16.1342C7.40298 15.9632 6.43737 15.5507 5.60779 14.931C4.77821 14.3113 4.10868 13.5024 3.65494 12.5717C2.55878 12.0381 1.63478 11.207 0.98848 10.1732C0.342178 9.13949 -0.000376813 7.94484 -6.01064e-05 6.72569ZM6.49994 1.72569C5.17386 1.72569 3.90209 2.25248 2.96441 3.19016C2.02672 4.12784 1.49994 5.39961 1.49994 6.72569C1.49994 8.05178 2.02672 9.32355 2.96441 10.2612C3.90209 11.1989 5.17386 11.7257 6.49994 11.7257C7.82602 11.7257 9.09779 11.1989 10.0355 10.2612C10.9732 9.32355 11.4999 8.05178 11.4999 6.72569C11.4999 5.39961 10.9732 4.12784 10.0355 3.19016C9.09779 2.25248 7.82602 1.72569 6.49994 1.72569ZM12.9999 6.72569C12.9999 6.52469 12.9899 6.32569 12.9729 6.12869C13.4505 6.58993 13.8314 7.14165 14.0934 7.75167C14.3555 8.36169 14.4934 9.01779 14.4992 9.68169C14.505 10.3456 14.3785 11.004 14.127 11.6185C13.8756 12.2329 13.5044 12.7912 13.0349 13.2607C12.5655 13.7301 12.0072 14.1014 11.3927 14.3528C10.7782 14.6042 10.1198 14.7307 9.45593 14.7249C8.79204 14.7192 8.13594 14.5812 7.52592 14.3192C6.9159 14.0572 6.36417 13.6762 5.90294 13.1987C6.80308 13.2817 7.71065 13.1761 8.56766 12.8885C9.42466 12.601 10.2123 12.1378 10.8802 11.5286C11.548 10.9195 12.0815 10.1777 12.4465 9.3507C12.8115 8.5237 13 7.62966 12.9999 6.72569Z"
          fill="black"/>
</svg>
